# xmcd CD database file
#
# Track frame offsets:
#	150
#	13356
#	25145
#	37588
#	51003
#	63541
#	76993
#	97386
#	108686
#	119261
#	135356
#	148821
#	162296
#	172471
#	187526
#	199243
#	210016
#
# Disc length: 2942 seconds
#
# Revision: 0
# Processed by: cddbd v1.4PL0 Copyright (c) Steve Scherf et al.
# Submitted via: CDex 1.50
#
DISCID=eb0b7c11
DTITLE=Kenny Rogers - The Very Best Of - CD1
DYEAR=1999
DGENRE=Country
TTITLE0=Ruby,Don't Take your Love to Town
TTITLE1=Elvira
TTITLE2=Reuben JAmes
TTITLE3=But you Know I Love You
TTITLE4=Love Woman
TTITLE5=A Stranger in My Place
TTITLE6=Lay It Down
TTITLE7=If Wishes Were Horses
TTITLE8=Ticket to Nowhere
TTITLE9=The Way It Used to Be
TTITLE10=Shine on Ruby Mountain
TTITLE11=Sleep Comes Easy
TTITLE12=Where Deoes Rosie Go
TTITLE13=After All
TTITLE14=Calico Silver
TTITLE15=Homemade Lies
TTITLE16=She Even Woke up to say GoodBye
EXTD=YEAR: 1999
EXTT0=
EXTT1=
EXTT2=
EXTT3=
EXTT4=
EXTT5=
EXTT6=
EXTT7=
EXTT8=
EXTT9=
EXTT10=
EXTT11=
EXTT12=
EXTT13=
EXTT14=
EXTT15=
EXTT16=
PLAYORDER=
